<svg width="41" height="70" viewBox="0 0 41 70" fill="none" xmlns="http://www.w3.org/2000/svg">
<path d="M0.607544 34.7461C0.607544 36.1621 1.14465 37.4316 2.2677 38.5059L31.9552 67.9492C32.8829 68.877 34.0548 69.3652 35.422 69.3652C38.2052 69.3652 40.3536 67.168 40.3536 64.4336C40.3536 63.0176 39.8165 61.7969 38.8399 60.8203L12.5216 34.7461L38.8399 8.67192C39.8165 7.69532 40.3536 6.42581 40.3536 5.10741C40.3536 2.32421 38.2052 0.127014 35.422 0.127014C34.0548 0.127014 32.8829 0.615215 31.9552 1.54301L2.2677 30.9863C1.14465 32.0605 0.656374 33.3301 0.607544 34.7461Z" fill="black"/>
</svg>
