<svg width="41" height="70" viewBox="0 0 41 70" fill="none" xmlns="http://www.w3.org/2000/svg">
<path d="M40.5098 34.7461C40.461 33.3301 39.9727 32.0605 38.8497 30.9863L9.1622 1.54295C8.2345 0.615153 7.06259 0.126953 5.69539 0.126953C2.91219 0.126953 0.763794 2.32415 0.763794 5.10735C0.763794 6.42575 1.3009 7.69526 2.2774 8.67186L28.5958 34.7461L2.2774 60.8203C1.3009 61.7968 0.763794 63.0175 0.763794 64.4335C0.763794 67.1679 2.91219 69.3652 5.69539 69.3652C7.06259 69.3652 8.2345 68.8769 9.1622 67.9492L38.8497 38.5059C39.9727 37.4316 40.5098 36.1621 40.5098 34.7461Z" fill="black"/>
</svg>
